<?xml version="1.0" encoding="UTF-8"?>
<svg width="115px" height="58px" viewBox="0 0 115 58" version="1.1" xmlns="http://www.w3.org/2000/svg" xmlns:xlink="http://www.w3.org/1999/xlink">
    <!-- Generator: Sketch 58 (84663) - https://sketch.com -->
    <title>header-logo</title>
    <desc>Created with Sketch.</desc>
    <g id="Page-1" stroke="none" stroke-width="1" fill="none" fill-rule="evenodd">
        <g id="Desktop-HD" transform="translate(-61.000000, -29.000000)" fill="#FFFFFF">
            <path d="M176,29 L176,87 L61,87 L61,29 L176,29 Z M140.6211,42.5 L134.718248,42.5 L134.718248,64.4019368 L134.717457,64.7804144 C134.709108,66.8049162 134.635943,68.9037749 134.561201,70.0728394 L134.561201,70.0728394 L139.57139,70.0728394 L139.803221,67.4327175 L139.879727,67.4327175 L140.024843,67.6687423 C141.359442,69.7438579 143.456172,70.5 145.590099,70.5 C149.938151,70.5 154.246674,67.0831901 154.246674,60.2463652 C154.286084,54.4212645 150.98519,50.6549272 146.443292,50.6549272 C143.801449,50.6549272 141.823762,51.7031533 140.697606,53.334756 L140.697606,53.334756 L140.6211,53.334756 L140.6211,42.5 Z M110.072672,51.4373724 C109.410475,51.4373724 108.867102,51.6599446 108.445699,52.0984416 C108.022871,52.5366417 107.812763,53.1003133 107.812763,53.7868447 C107.812763,54.3751476 107.953903,54.894186 108.22835,55.3405175 C108.842174,56.3287381 109.202088,56.9373396 109.303522,57.1715449 C109.406142,57.4065218 109.457423,57.7479179 109.457423,58.1936558 C109.457423,59.0590166 109.225295,60.0768542 108.763057,61.2447351 C108.298801,62.4129721 107.690734,63.5203134 106.947995,64.5694298 C105.33402,66.7956861 103.862967,67.9085472 102.523794,67.9085472 C101.683658,67.9085472 101.259346,67.3973433 101.259346,66.3741047 C101.259346,65.8564907 101.384284,64.9711281 101.639559,63.7182543 C101.892282,62.4671611 102.19777,61.2088268 102.560296,59.9461598 L102.560296,59.9461598 L104.456196,53.351256 L104.498989,53.2100125 C104.591941,52.8975278 104.636746,52.7045947 104.636746,52.6305375 C104.636746,52.4149096 104.536796,52.2876576 104.338856,52.2494346 C104.153557,52.2166957 103.537575,52.1998812 102.486903,52.1977848 L102.486903,52.1977848 L101.586854,52.1975604 L101.356982,52.1982052 C100.314549,52.2042227 99.696296,52.2523468 99.500195,52.3421433 C99.2889591,52.4381164 99.099387,52.7855665 98.9318939,53.3889449 L98.9318939,53.3889449 L98.1201286,56.2243962 L97.9653082,56.7357513 C97.0526292,59.6215588 95.5387987,62.305511 93.4255167,64.7850578 C91.9190886,66.5560797 90.7824865,67.441383 90.0116151,67.441383 C89.832489,67.441383 89.6736614,67.3533037 89.542967,67.1770859 C89.4137564,67.0043698 89.3447294,66.7956861 89.3447294,66.5560797 C89.3447294,66.0729496 89.6606632,64.8882126 90.2831532,62.9966455 L90.2831532,62.9966455 L92.2318174,57.073257 L92.3418528,56.717804 C92.6180174,55.784724 92.7560789,54.9699727 92.7560789,54.2728831 C92.7560789,53.4912688 92.5167099,52.8684821 92.0350636,52.4044635 C91.5519335,51.9419288 90.9088482,51.7098008 90.1023058,51.7098008 C88.4654801,51.7098008 86.7663341,52.3824437 85.0115748,53.7317655 C84.3258743,54.2487859 83.7004761,54.8617201 83.1335995,55.5665321 C82.5682067,56.2693262 82.2850355,56.7832009 82.2850355,57.1097588 C82.2850355,57.4218941 82.447899,57.5790004 82.7724983,57.5790004 C82.9881263,57.5790004 83.3378911,57.284849 83.8193,56.6936378 C84.3846927,56.0201046 84.9483643,55.4462838 85.5079999,54.9689703 C86.0690599,54.4939715 86.4655352,54.2546025 86.7089402,54.2546025 C87.0219657,54.2546025 87.1775882,54.422689 87.1775882,54.7611768 C87.1775882,55.024643 87.1042284,55.3816488 86.960239,55.8288112 L86.960239,55.8288112 L84.7591482,62.6361379 L84.6515738,62.971625 C84.0594841,64.8397948 83.7648143,66.1482483 83.7648143,66.8965855 C83.7648143,67.9468296 84.0514279,68.7582982 84.6226373,69.3355615 C85.1952711,69.9140119 85.9925544,70.2021093 87.0161492,70.2021093 C89.0598963,70.2021093 91.1247729,69.1002285 93.2081675,66.8965855 C94.3288631,65.7057945 95.5782352,63.995609 96.9614473,61.7689965 C96.3241785,64.7290883 96.0056925,66.6641608 96.0056925,67.5660234 C96.0056925,69.3239878 97.0232333,70.2021093 99.0582556,70.2021093 C100.780608,70.2021093 102.482603,69.6984433 104.166674,68.6864222 C105.840892,67.6761225 107.30328,66.2181854 108.554373,64.3149853 C109.733353,62.5326863 110.668809,60.7456985 111.362048,58.950342 C112.054989,57.1584873 112.399887,55.6225016 112.399887,54.34559 C112.399887,53.4434306 112.1915,52.7333956 111.777338,52.2143572 C111.362048,51.6973368 110.793747,51.4373724 110.072672,51.4373724 Z M131.148427,51.0820878 L125.247058,51.0820878 L125.247058,70.0728394 L131.148427,70.0728394 L131.148427,51.0820878 Z M121.634562,42.5 L115.734678,42.5 L115.734678,70.0728394 L121.634562,70.0728394 L121.634562,42.5 Z M144.190921,55.1979525 C146.949867,55.1979525 148.268503,57.527423 148.268503,60.4814014 C148.268503,63.8988049 146.716314,65.8408217 144.190921,65.8408217 C142.484534,65.8408217 141.126191,64.5972662 140.735532,63.0435934 C140.659323,62.7332387 140.6211,62.382821 140.6211,61.994477 L140.6211,61.994477 L140.6211,59.2007506 L140.628263,58.9159834 C140.642586,58.637131 140.678375,58.3742955 140.735532,58.1119273 C141.126191,56.4035224 142.60045,55.1979525 144.190921,55.1979525 Z M128.236707,42.8489339 C126.333507,42.8489339 125.091435,44.1307718 125.091435,45.8011911 C125.091435,47.4316661 126.294097,48.7517271 128.15759,48.7517271 C130.135219,48.7517271 131.340848,47.4316661 131.340848,45.8011911 C131.301141,44.1307718 130.135219,42.8489339 128.236707,42.8489339 Z" id="header-logo"></path>
        </g>
    </g>
</svg>